<svg width="8" height="12" viewBox="0 0 8 12" fill="none" xmlns="http://www.w3.org/2000/svg">
<path d="M4.7 5.50001C4.3 5.90001 3.7 5.90001 3.3 5.50001L0.3 2.50001C-0.1 2.10001 -0.1 1.50001 0.3 1.10001C0.7 0.700013 1.3 0.700013 1.7 1.10001L4 3.40001L6.3 1.10001C6.5 0.900013 6.7 0.800012 7 0.800012C7.3 0.800012 7.5 0.900013 7.7 1.10001C8.1 1.50001 8.1 2.10001 7.7 2.50001L4.7 5.50001ZM1.7 6.50001L4 8.80001L6.3 6.50001C6.5 6.30001 6.7 6.20001 7 6.20001C7.3 6.20001 7.5 6.30001 7.7 6.50001C8.1 6.90001 8.1 7.50001 7.7 7.90001L4.7 10.9C4.3 11.3 3.7 11.3 3.3 10.9L0.3 7.90001C-0.1 7.50001 -0.1 6.90001 0.3 6.50001C0.7 6.20001 1.3 6.20001 1.7 6.50001Z" fill="#FFBC57"/>
</svg>
