<svg width="20" height="12" viewBox="0 0 20 12" fill="none" xmlns="http://www.w3.org/2000/svg">
<path d="M13.29 0.289815C13.1963 0.382779 13.1219 0.493378 13.0711 0.615238C13.0203 0.737097 12.9942 0.867803 12.9942 0.999814C12.9942 1.13183 13.0203 1.26253 13.0711 1.38439C13.1219 1.50625 13.1963 1.61685 13.29 1.70981L16.59 4.99981L1 4.99981C0.734783 4.99981 0.480429 5.10517 0.292893 5.29271C0.105357 5.48024 -2.7404e-07 5.7346 -2.62447e-07 5.99981C-2.50854e-07 6.26503 0.105357 6.51938 0.292893 6.70692C0.48043 6.89446 0.734783 6.99981 1 6.99981L16.59 6.99981L13.29 10.2898C13.1017 10.4781 12.9959 10.7335 12.9959 10.9998C12.9959 11.2661 13.1017 11.5215 13.29 11.7098C13.4783 11.8981 13.7337 12.0039 14 12.0039C14.2663 12.0039 14.5217 11.8981 14.71 11.7098L19.71 6.70981C19.801 6.61471 19.8724 6.50256 19.92 6.37981C19.9729 6.26011 20.0002 6.13068 20.0002 5.99981C20.0002 5.86894 19.9729 5.73951 19.92 5.61981C19.8724 5.49706 19.801 5.38492 19.71 5.28981L14.71 0.289815C14.617 0.196087 14.5064 0.121691 14.3846 0.0709222C14.2627 0.0201534 14.132 -0.00598397 14 -0.00598396C13.868 -0.00598396 13.7373 0.0201534 13.6154 0.0709223C13.4936 0.121691 13.383 0.196087 13.29 0.289815Z" fill="#FFBC57"/>
</svg>
