<svg width="20" height="20" viewBox="0 0 20 20" fill="none" xmlns="http://www.w3.org/2000/svg">
<path d="M19 1.47517H13.8772C13.3249 1.47517 12.8772 1.92289 12.8772 2.47517V7.59794C12.8772 8.15023 13.3249 8.59794 13.8772 8.59794H19C19.5523 8.59794 20 8.15023 20 7.59794V2.47517C20 1.92289 19.5523 1.47517 19 1.47517Z" fill="white"/>
<path d="M9.36607 4.32945L5.74373 0.707107C5.3532 0.316582 4.72004 0.316582 4.32951 0.707106L0.70717 4.32945C0.316646 4.71998 0.316645 5.35314 0.707169 5.74366L4.32951 9.36601C4.72004 9.75653 5.3532 9.75653 5.74373 9.36601L9.36607 5.74366C9.7566 5.35314 9.7566 4.71998 9.36607 4.32945Z" fill="white"/>
<path d="M7.59787 12.8772H2.4751C1.92281 12.8772 1.4751 13.3249 1.4751 13.8772V19C1.4751 19.5523 1.92281 20 2.4751 20H7.59787C8.15015 20 8.59787 19.5523 8.59787 19V13.8772C8.59787 13.3249 8.15015 12.8772 7.59787 12.8772Z" fill="white"/>
<path d="M19 12.8772H13.8772C13.3249 12.8772 12.8772 13.3249 12.8772 13.8772V19C12.8772 19.5523 13.3249 20 13.8772 20H19C19.5523 20 20 19.5523 20 19V13.8772C20 13.3249 19.5523 12.8772 19 12.8772Z" fill="white"/>
</svg>
