<svg width="25" height="25" viewBox="0 0 25 25" fill="none" xmlns="http://www.w3.org/2000/svg">
<path d="M16.6253 8.55289L10.9573 14.2406L8.74046 12.0087C8.51481 11.7828 8.20877 11.6558 7.88966 11.6558C7.57055 11.6558 7.2645 11.7828 7.03886 12.0087C6.81321 12.2347 6.68644 12.5411 6.68644 12.8607C6.68644 13.0189 6.71757 13.1756 6.77803 13.3218C6.8385 13.468 6.92713 13.6008 7.03886 13.7127L10.1065 16.7845C10.2179 16.897 10.3505 16.9863 10.4965 17.0472C10.6425 17.1081 10.7991 17.1395 10.9573 17.1395C11.1155 17.1395 11.2722 17.1081 11.4182 17.0472C11.5642 16.9863 11.6967 16.897 11.8081 16.7845L18.3269 10.2568C18.4387 10.1449 18.5273 10.0121 18.5878 9.86593C18.6482 9.71975 18.6794 9.56308 18.6794 9.40485C18.6794 9.24663 18.6482 9.08995 18.5878 8.94377C18.5273 8.79759 18.4387 8.66477 18.3269 8.55289C18.2152 8.44101 18.0826 8.35226 17.9366 8.29171C17.7906 8.23116 17.6342 8.19999 17.4761 8.19999C17.3181 8.19999 17.1617 8.23116 17.0157 8.29171C16.8697 8.35226 16.7371 8.44101 16.6253 8.55289ZM12.6829 0.333252C11.1093 0.333252 9.55102 0.643627 8.09716 1.24666C6.64331 1.84969 5.3223 2.73356 4.20956 3.84782C1.96229 6.09815 0.699792 9.15026 0.699792 12.3327C0.689316 15.1036 1.64741 17.7907 3.40798 19.9284L1.01135 22.3283C0.845078 22.497 0.732441 22.7113 0.687655 22.9441C0.642869 23.1769 0.667941 23.4177 0.759707 23.6362C0.859236 23.8521 1.02058 24.0336 1.22327 24.1575C1.42596 24.2814 1.66084 24.3422 1.8981 24.3322H12.6829C15.861 24.3322 18.909 23.068 21.1562 20.8176C23.4035 18.5673 24.666 15.5152 24.666 12.3327C24.666 9.15026 23.4035 6.09815 21.1562 3.84782C18.909 1.59748 15.861 0.333252 12.6829 0.333252ZM12.6829 21.9323H4.78603L5.90046 20.8163C6.12365 20.5915 6.24892 20.2874 6.24892 19.9704C6.24892 19.6534 6.12365 19.3492 5.90046 19.1244C4.33138 17.5549 3.35426 15.4892 3.13559 13.2792C2.91692 11.0692 3.47022 8.85168 4.70122 7.00438C5.93223 5.15708 7.76478 3.79433 9.88666 3.14829C12.0085 2.50226 14.2885 2.61292 16.338 3.46141C18.3876 4.3099 20.0799 5.84374 21.1267 7.80159C22.1736 9.75944 22.5101 12.0202 22.079 14.1986C21.6479 16.3771 20.4759 18.3385 18.7626 19.7487C17.0493 21.1589 14.9007 21.9305 12.6829 21.9323Z" fill="white"/>
</svg>
