<!-- Generated by IcoMoon.io -->
<svg version="1.1" xmlns="http://www.w3.org/2000/svg" width="32" height="32" viewBox="0 0 32 32"><title>info</title>
<path d="M16 9.333c0.736 0 1.333 0.597 1.333 1.333v6.667c0 0.736-0.597 1.333-1.333 1.333s-1.333-0.597-1.333-1.333v-6.667c0-0.736 0.597-1.333 1.333-1.333z"></path>
<path d="M16 22.667c0.736 0 1.333-0.597 1.333-1.333s-0.597-1.333-1.333-1.333c-0.736 0-1.333 0.597-1.333 1.333s0.597 1.333 1.333 1.333z"></path>
<path d="M16 2.667c-7.364 0-13.333 5.97-13.333 13.333s5.97 13.333 13.333 13.333c7.364 0 13.333-5.97 13.333-13.333s-5.97-13.333-13.333-13.333zM5.333 16c0-5.891 4.776-10.667 10.667-10.667s10.667 4.776 10.667 10.667c0 5.891-4.776 10.667-10.667 10.667s-10.667-4.776-10.667-10.667z"></path>
</svg>
