<svg width="24" height="24" viewBox="0 0 24 24" fill="none" xmlns="http://www.w3.org/2000/svg">
<path d="M19.68 3.2C20 3.52 20.16 4 20.16 4.48C20.16 4.96 20 5.44 19.68 5.76C19.36 6.08 19.04 6.24 18.56 6.24C18.08 6.24 17.6 6.08 17.28 5.76C16.96 5.44 16.8 4.96 16.8 4.48C16.8 4 16.96 3.52 17.28 3.2C17.6 2.88 18.08 2.72 18.56 2.72C18.88 2.72 19.36 2.88 19.68 3.2ZM18.3438 12.16C18.3438 16 16 18.5 12 18.5C8 18.5 5.6875 16 5.6875 12.16C5.6875 8.16 8 5.76 12 5.76C16 5.76 18.3438 8.16 18.3438 12.16ZM23.84 8.16C23.84 5.92 23.04 4 21.44 2.4C19.84 0.800001 17.92 0 15.68 0H8.16C5.92 0 4 0.800001 2.4 2.4C0.800001 4 0 5.92 0 8.16V15.68C0 17.92 0.800001 19.84 2.4 21.44C4 23.04 5.92 23.84 8.16 23.84H15.68C17.92 23.84 19.84 23.04 21.44 21.44C23.04 19.84 23.84 17.92 23.84 15.68V8.16Z" fill="white"/>
</svg>
