<svg width="34" height="34" viewBox="0 0 34 34" fill="none" xmlns="http://www.w3.org/2000/svg">
<path d="M15.8163 22.4835C15.7447 22.5627 15.6779 22.6462 15.6163 22.7335C15.5533 22.8264 15.5028 22.9273 15.4663 23.0335C15.4183 23.128 15.3846 23.2291 15.3663 23.3335C15.3582 23.4445 15.3582 23.5559 15.3663 23.6668C15.3607 23.8855 15.4064 24.1024 15.4997 24.3002C15.5745 24.507 15.694 24.6948 15.8495 24.8504C16.005 25.0059 16.1929 25.1253 16.3997 25.2002C16.5992 25.2883 16.8149 25.3339 17.033 25.3339C17.2511 25.3339 17.4668 25.2883 17.6663 25.2002C17.8732 25.1253 18.061 25.0059 18.2165 24.8504C18.3721 24.6948 18.4915 24.507 18.5663 24.3002C18.6404 24.0975 18.6743 23.8824 18.6663 23.6668C18.6676 23.4475 18.6256 23.23 18.5426 23.027C18.4597 22.8239 18.3375 22.6392 18.183 22.4835C18.0281 22.3273 17.8437 22.2033 17.6406 22.1187C17.4375 22.0341 17.2197 21.9905 16.9997 21.9905C16.7797 21.9905 16.5618 22.0341 16.3587 22.1187C16.1556 22.2033 15.9713 22.3273 15.8163 22.4835ZM16.9997 0.333496C13.7033 0.333496 10.481 1.31098 7.74018 3.14234C4.99936 4.97369 2.86315 7.57667 1.60169 10.6221C0.340229 13.6675 0.0101736 17.0187 0.653261 20.2517C1.29635 23.4847 2.88369 26.4544 5.21457 28.7853C7.54544 31.1162 10.5152 32.7035 13.7482 33.3466C16.9812 33.9897 20.3323 33.6596 23.3777 32.3982C26.4232 31.1367 29.0261 29.0005 30.8575 26.2597C32.6889 23.5188 33.6663 20.2965 33.6663 17.0002C33.6663 14.8115 33.2353 12.6442 32.3977 10.6221C31.5601 8.60001 30.3324 6.76269 28.7848 5.21505C27.2372 3.66741 25.3998 2.43975 23.3777 1.60217C21.3556 0.764592 19.1884 0.333496 16.9997 0.333496ZM16.9997 30.3335C14.3626 30.3335 11.7847 29.5515 9.59208 28.0864C7.39942 26.6213 5.69046 24.539 4.68129 22.1026C3.67212 19.6663 3.40808 16.9854 3.92255 14.399C4.43702 11.8125 5.70689 9.43677 7.57159 7.57207C9.43629 5.70737 11.8121 4.4375 14.3985 3.92303C16.9849 3.40856 19.6658 3.6726 22.1021 4.68177C24.5385 5.69094 26.6209 7.3999 28.0859 9.59256C29.551 11.7852 30.333 14.3631 30.333 17.0002C30.333 20.5364 28.9283 23.9278 26.4278 26.4283C23.9273 28.9287 20.5359 30.3335 16.9997 30.3335ZM16.9997 8.66683C16.1215 8.66627 15.2586 8.89703 14.4979 9.3359C13.7372 9.77477 13.1055 10.4063 12.6663 11.1668C12.5458 11.3565 12.4648 11.5687 12.4283 11.7905C12.3918 12.0123 12.4006 12.2391 12.4541 12.4575C12.5075 12.6758 12.6046 12.8811 12.7395 13.0609C12.8743 13.2407 13.0442 13.3914 13.2388 13.5039C13.4334 13.6164 13.6488 13.6884 13.8719 13.7155C14.095 13.7426 14.3214 13.7243 14.5372 13.6616C14.7531 13.599 14.9541 13.4933 15.1281 13.351C15.3021 13.2087 15.4455 13.0327 15.5497 12.8335C15.6965 12.5792 15.908 12.3681 16.1626 12.2218C16.4172 12.0755 16.706 11.999 16.9997 12.0002C17.4417 12.0002 17.8656 12.1758 18.1782 12.4883C18.4908 12.8009 18.6663 13.2248 18.6663 13.6668C18.6663 14.1089 18.4908 14.5328 18.1782 14.8453C17.8656 15.1579 17.4417 15.3335 16.9997 15.3335C16.5577 15.3335 16.1337 15.5091 15.8212 15.8217C15.5086 16.1342 15.333 16.5581 15.333 17.0002V18.6668C15.333 19.1089 15.5086 19.5328 15.8212 19.8453C16.1337 20.1579 16.5577 20.3335 16.9997 20.3335C17.4417 20.3335 17.8656 20.1579 18.1782 19.8453C18.4908 19.5328 18.6663 19.1089 18.6663 18.6668V18.3668C19.7686 17.9669 20.6953 17.1922 21.2843 16.1783C21.8733 15.1643 22.0872 13.9756 21.8887 12.82C21.6901 11.6643 21.0917 10.6152 20.198 9.85602C19.3043 9.09685 18.1723 8.67593 16.9997 8.66683Z" fill="#FFBC57"/>
</svg>
