<svg width="21" height="20" viewBox="0 0 21 20" fill="none" xmlns="http://www.w3.org/2000/svg">
<path d="M20.2099 2.71982L17.7799 0.289816C17.5925 0.103565 17.3391 -0.000976563 17.0749 -0.000976562C16.8107 -0.000976562 16.5573 0.103565 16.3699 0.289816L10.7899 5.86982C10.6972 5.96326 10.6239 6.07407 10.5741 6.19591C10.5244 6.31775 10.4991 6.44821 10.4999 6.57982V8.99982C10.4999 9.26503 10.6053 9.51939 10.7928 9.70692C10.9803 9.89446 11.2347 9.99982 11.4999 9.99982H13.9199C14.0515 10.0006 14.182 9.97535 14.3038 9.92559C14.4256 9.87582 14.5365 9.8025 14.6299 9.70982L20.2099 4.12982C20.3961 3.94245 20.5007 3.689 20.5007 3.42482C20.5007 3.16063 20.3961 2.90718 20.2099 2.71982ZM13.4999 7.99982H12.4999V6.99982L17.0799 2.41982L18.0799 3.41982L13.4999 7.99982ZM17.4999 9.99982C17.2347 9.99982 16.9803 10.1052 16.7928 10.2927C16.6053 10.4802 16.4999 10.7346 16.4999 10.9998C16.4999 12.8563 15.7624 14.6368 14.4496 15.9496C13.1369 17.2623 11.3564 17.9998 9.4999 17.9998H3.9099L4.5499 17.3698C4.64362 17.2769 4.71802 17.1663 4.76879 17.0444C4.81956 16.9225 4.84569 16.7918 4.84569 16.6598C4.84569 16.5278 4.81956 16.3971 4.76879 16.2752C4.71802 16.1534 4.64362 16.0428 4.5499 15.9498C3.57083 14.9708 2.90406 13.7235 2.63392 12.3656C2.36378 11.0077 2.50241 9.60011 3.03226 8.32096C3.56212 7.04182 4.4594 5.94853 5.61064 5.17937C6.76188 4.4102 8.11535 3.99972 9.4999 3.99982C9.76511 3.99982 10.0195 3.89446 10.207 3.70692C10.3945 3.51939 10.4999 3.26503 10.4999 2.99982C10.4999 2.7346 10.3945 2.48025 10.207 2.29271C10.0195 2.10517 9.76511 1.99982 9.4999 1.99982C7.80736 2.00538 6.1507 2.4881 4.72008 3.39255C3.28947 4.29701 2.14289 5.58655 1.41196 7.11313C0.681041 8.63972 0.395404 10.3415 0.58784 12.023C0.780276 13.7046 1.44299 15.2978 2.4999 16.6198L0.789895 18.2898C0.651138 18.4304 0.557141 18.609 0.519767 18.803C0.482393 18.997 0.503316 19.1977 0.579895 19.3798C0.654915 19.5624 0.782313 19.7188 0.946034 19.8291C1.10975 19.9394 1.30247 19.9988 1.4999 19.9998H9.4999C10.6818 19.9998 11.8521 19.767 12.944 19.3147C14.036 18.8624 15.0281 18.1995 15.8639 17.3638C16.6996 16.528 17.3625 15.5359 17.8148 14.444C18.2671 13.352 18.4999 12.1817 18.4999 10.9998C18.4999 10.7346 18.3945 10.4802 18.207 10.2927C18.0195 10.1052 17.7651 9.99982 17.4999 9.99982Z" fill="white"/>
</svg>
