<svg width="58" height="33" viewBox="0 0 58 33" fill="none" xmlns="http://www.w3.org/2000/svg">
<path d="M6.01541 11.1198V31.5059C6.01541 32.0618 5.64296 32.4325 5.08429 32.4325H1.35983C0.801157 32.4325 0.428711 32.0618 0.428711 31.5059V11.1198C0.428711 10.5638 0.801157 10.1931 1.35983 10.1931H5.08429C5.64296 10.1931 6.01541 10.6564 6.01541 11.1198ZM56.6405 10.1931H52.916C52.3573 10.1931 51.9849 10.5638 51.9849 11.1198V31.5059C51.9849 32.0618 52.3573 32.4325 52.916 32.4325H56.6405C57.1991 32.4325 57.5716 32.0618 57.5716 31.5059V11.1198C57.5716 10.6564 57.1991 10.1931 56.6405 10.1931Z" fill="#FFBC57"/>
<path d="M50.1224 16.6795V22.2394C50.1224 22.7954 49.75 23.166 49.1913 23.166H8.80856C8.24989 23.166 7.87744 22.7954 7.87744 22.2394V16.6795C7.87744 16.1236 8.24989 15.7529 8.80856 15.7529H49.1913C49.75 15.7529 50.1224 16.1236 50.1224 16.6795ZM8.80856 13.8996H19.7865C20.3452 13.8996 20.7176 13.529 20.7176 12.973V0.926641C20.7176 0.370656 20.3452 0 19.7865 0H8.80856C8.24989 0 7.87744 0.370656 7.87744 0.926641V12.973C7.87744 13.529 8.24989 13.8996 8.80856 13.8996ZM23.511 13.8996H34.4889C35.0476 13.8996 35.42 13.529 35.42 12.973V0.926641C35.42 0.370656 35.0476 0 34.4889 0H23.511C22.9523 0 22.5799 0.370656 22.5799 0.926641V12.973C22.5799 13.529 22.9523 13.8996 23.511 13.8996ZM49.1913 0H38.2134C37.6547 0 37.2823 0.370656 37.2823 0.926641V12.973C37.2823 13.529 37.6547 13.8996 38.2134 13.8996H49.1913C49.75 13.8996 50.1224 13.529 50.1224 12.973V0.926641C50.1224 0.370656 49.75 0 49.1913 0ZM49.1913 25.0193H8.80856C8.24989 25.0193 7.87744 25.39 7.87744 25.9459V31.5058C7.87744 32.0618 8.24989 32.4324 8.80856 32.4324H14.1998C14.7585 32.4324 15.1309 32.0618 15.1309 31.5058V30.5791H42.869V31.5058C42.869 32.0618 43.2414 32.4324 43.8001 32.4324H49.1913C49.75 32.4324 50.1224 32.0618 50.1224 31.5058V25.9459C50.1224 25.39 49.75 25.0193 49.1913 25.0193Z" fill="#FFBC57"/>
</svg>
