<svg width="28" height="28" viewBox="0 0 28 28" fill="none" xmlns="http://www.w3.org/2000/svg">
<path d="M26.2023 1.81351C25.6929 1.29426 25.047 0.929799 24.3391 0.762275C23.6313 0.594751 22.8905 0.631004 22.2023 0.866843L3.33568 7.17351C2.57476 7.42258 1.90993 7.90171 1.43295 8.54476C0.955968 9.18781 0.690366 9.96307 0.672806 10.7635C0.655245 11.564 0.886594 12.3501 1.33491 13.0135C1.78324 13.6768 2.42642 14.1846 3.17568 14.4668L10.1623 17.1335C10.3214 17.1943 10.4663 17.2873 10.5879 17.4066C10.7095 17.5259 10.8052 17.6689 10.869 17.8268L13.5357 24.8268C13.8071 25.5655 14.2997 26.2025 14.9463 26.6511C15.5929 27.0996 16.3621 27.3379 17.149 27.3335H17.2423C18.0437 27.3189 18.8204 27.054 19.4636 26.5757C20.1068 26.0975 20.5842 25.43 20.829 24.6668L27.1357 5.77351C27.365 5.09209 27.3992 4.3601 27.2342 3.66029C27.0693 2.96048 26.7119 2.32078 26.2023 1.81351ZM24.669 4.93351L18.2957 23.8402C18.2217 24.0795 18.073 24.2888 17.8715 24.4375C17.67 24.5863 17.4262 24.6666 17.1757 24.6668C16.9267 24.6709 16.6823 24.5991 16.4751 24.461C16.2679 24.3229 16.1077 24.1249 16.0157 23.8935L13.349 16.8935C13.1557 16.3849 12.8575 15.9226 12.4739 15.5367C12.0903 15.1508 11.6298 14.8499 11.1223 14.6535L4.12234 11.9868C3.8862 11.9003 3.68321 11.7418 3.54206 11.5336C3.4009 11.3255 3.32871 11.0782 3.33568 10.8268C3.33588 10.5764 3.41623 10.3325 3.56498 10.131C3.71372 9.92948 3.92305 9.78085 4.16234 9.70684L23.069 3.40018C23.2861 3.31171 23.5241 3.28801 23.7544 3.33194C23.9846 3.37588 24.1972 3.48557 24.3665 3.64776C24.5357 3.80995 24.6543 4.01768 24.708 4.24586C24.7617 4.47403 24.7482 4.71287 24.669 4.93351Z" fill="#FFBC57"/>
</svg>
