<svg width="34" height="32" viewBox="0 0 34 32" fill="none" xmlns="http://www.w3.org/2000/svg">
<path d="M33.3543 12.7429C33.521 11.9091 32.854 10.9084 32.0201 10.9084L22.5141 9.57427L18.1781 0.902156C18.0113 0.568614 17.8445 0.401842 17.511 0.235071C16.6771 -0.265243 15.6765 0.0682996 15.1762 0.902156L11.0069 9.57427L1.50094 10.9084C1.00063 10.9084 0.667085 11.0752 0.500314 11.4088C-0.166771 12.0758 -0.166771 13.0765 0.500314 13.7436L7.33794 20.4144L5.67023 29.9204C5.67023 30.2539 5.67023 30.5875 5.837 30.921C6.33731 31.7549 7.33794 32.0884 8.1718 31.5881L16.6771 27.0853L25.1825 31.5881C25.3492 31.7549 25.6828 31.7549 26.0163 31.7549C26.1831 31.7549 26.1831 31.7549 26.3499 31.7549C27.1837 31.5881 27.8508 30.7542 27.684 29.7536L26.0163 20.2476L32.854 13.5768C33.1875 13.41 33.3543 13.0765 33.3543 12.7429Z" fill="#FFBC57"/>
</svg>
