<svg width="34" height="32" viewBox="0 0 34 32" fill="none" xmlns="http://www.w3.org/2000/svg">
<path d="M33.6665 12.1169C33.5612 11.8121 33.3698 11.5443 33.1154 11.3461C32.8609 11.1479 32.5545 11.0277 32.2331 11.0002L22.7498 9.61691L18.4998 1.00024C18.3633 0.718457 18.1502 0.480812 17.8849 0.314531C17.6197 0.14825 17.3129 0.0600586 16.9998 0.0600586C16.6867 0.0600586 16.3799 0.14825 16.1147 0.314531C15.8494 0.480812 15.6363 0.718457 15.4998 1.00024L11.2498 9.60024L1.76647 11.0002C1.458 11.0441 1.16801 11.1735 0.929383 11.3738C0.69076 11.5742 0.513066 11.8374 0.416466 12.1336C0.328041 12.423 0.320106 12.7311 0.393513 13.0247C0.466919 13.3184 0.618896 13.5865 0.833133 13.8002L7.71647 20.4669L6.0498 29.9336C5.98251 30.2476 6.00739 30.5744 6.12144 30.8746C6.23549 31.1749 6.43386 31.4357 6.69268 31.6259C6.9515 31.8161 7.25975 31.9274 7.58035 31.9465C7.90094 31.9656 8.22023 31.8917 8.4998 31.7336L16.9998 27.2836L25.4998 31.7336C25.7337 31.8655 25.9979 31.9345 26.2665 31.9336C26.6195 31.9348 26.9638 31.8239 27.2498 31.6169C27.5084 31.4317 27.7085 31.1763 27.8267 30.881C27.9448 30.5857 27.976 30.2627 27.9165 29.9502L26.2498 20.4836L33.1331 13.8169C33.3738 13.613 33.5516 13.3451 33.646 13.0442C33.7404 12.7432 33.7475 12.4217 33.6665 12.1169ZM23.4165 18.7836C23.2236 18.9709 23.0788 19.2022 22.9947 19.4576C22.9105 19.7129 22.8894 19.9849 22.9331 20.2502L24.1331 27.2502L17.8665 23.9169C17.6229 23.7964 17.3549 23.7338 17.0831 23.7338C16.8114 23.7338 16.5434 23.7964 16.2998 23.9169L10.0331 27.2502L11.2331 20.2502C11.2769 19.9849 11.2557 19.7129 11.1716 19.4576C11.0874 19.2022 10.9427 18.9709 10.7498 18.7836L5.7498 13.7836L12.7665 12.7669C13.0365 12.7294 13.2931 12.6261 13.514 12.4663C13.7348 12.3065 13.9131 12.095 14.0331 11.8502L16.9998 5.50024L20.1331 11.8669C20.2532 12.1116 20.4315 12.3232 20.6523 12.483C20.8731 12.6428 21.1298 12.746 21.3998 12.7836L28.4165 13.8002L23.4165 18.7836Z" fill="#B1B1B1"/>
</svg>
