<svg width="80" height="80" viewBox="0 0 80 80" fill="none" xmlns="http://www.w3.org/2000/svg">
<path d="M38.3984 77.5C46.1304 77.5 52.3984 71.232 52.3984 63.5C52.3984 55.768 46.1304 49.5 38.3984 49.5C30.6665 49.5 24.3984 55.768 24.3984 63.5C24.3984 71.232 30.6665 77.5 38.3984 77.5Z" fill="#FFBC57"/>
<path d="M13 38.5C19.6274 38.5 25 33.1274 25 26.5C25 19.8726 19.6274 14.5 13 14.5C6.37258 14.5 1 19.8726 1 26.5C1 33.1274 6.37258 38.5 13 38.5Z" fill="#FFBC57"/>
<path d="M59.6016 49C70.6473 49 79.6016 40.0457 79.6016 29C79.6016 17.9543 70.6473 9 59.6016 9C48.5559 9 39.6016 17.9543 39.6016 29C39.6016 40.0457 48.5559 49 59.6016 49Z" fill="#FFBC57"/>
<path d="M70.8008 35.2L42.8008 25.2L14.8008 35.2L42.8008 45.2L70.8008 35.2Z" fill="white"/>
<path d="M37.8008 27L14.8008 35.2L37.8008 43.5V27Z" fill="white"/>
<path d="M65.0008 37.3L42.8008 29.4V45.2L65.0008 37.3Z" fill="white"/>
<path d="M42.8 46C42.7 46 42.6 46 42.5 46L14.5 36C14.2 35.9 14 35.6 14 35.3C14 35 14.2 34.7 14.5 34.6L42.5 24.6C42.7 24.5 42.8 24.5 43 24.6L71 34.6C71.3 34.7 71.5 35 71.5 35.3C71.5 35.6 71.3 35.9 71 36L43 46C42.9 46 42.8 46 42.8 46ZM17 35.2L42.8 44.4L68.6 35.2L42.8 26L17 35.2Z" fill="#2B2929"/>
<path d="M38.8008 18.2L10.8008 28.2L14.8008 35.2L42.8008 25.2L38.8008 18.2Z" fill="white"/>
<path d="M42.8008 25.2L38.8008 18.2L32.5008 20.5L33.8008 22.7999C34.4008 23.8999 33.9008 25.3 32.7008 25.7L13.3008 32.6L14.8008 35.2L42.8008 25.2Z" fill="white"/>
<path d="M14.7984 36C14.4984 36 14.2984 35.9 14.0984 35.6L10.0984 28.6C9.99844 28.4 9.99844 28.2 10.0984 28C10.1984 27.8 10.2984 27.6 10.5984 27.6L38.5984 17.6C38.8984 17.5 39.2984 17.6 39.4984 17.9L43.4984 24.9C43.5984 25.1 43.5984 25.3 43.5984 25.5C43.4984 25.7 43.3984 25.9 43.0984 25.9L14.9984 36C14.8984 36 14.7984 36 14.7984 36ZM11.8984 28.7L15.0984 34.4L41.6984 24.9L38.4984 19.2L11.8984 28.7Z" fill="#2B2929"/>
<path d="M46.8008 18.2L74.8008 28.2L70.8008 35.2L42.8008 25.2L46.8008 18.2Z" fill="white"/>
<path d="M70.7993 36C70.6993 36 70.5993 36 70.4993 36L42.4993 26C42.2993 25.9 42.0993 25.8 41.9993 25.6C41.8993 25.4 41.8993 25.2 42.0993 25L46.0993 18C46.2993 17.7 46.6993 17.5 46.9993 17.7L74.9993 27.7C75.1993 27.8 75.3993 27.9 75.4993 28.1C75.5993 28.3 75.5993 28.5 75.3993 28.7L71.3993 35.7C71.2993 35.9 70.9993 36 70.7993 36ZM43.8993 24.8L70.4993 34.3L73.6993 28.6L47.0993 19.1L43.8993 24.8Z" fill="#2B2929"/>
<path d="M42.8008 70.1999L14.8008 60.2V35.2L42.8008 45.2V70.1999Z" fill="white"/>
<path d="M36.4008 63.7999L14.8008 56V35.2L37.8008 43.4V62.7999C37.8008 63.5 37.1008 64 36.4008 63.7999Z" fill="white"/>
<path d="M42.8 71C42.7 71 42.6 71 42.5 71L14.5 61C14.2 60.9 14 60.6 14 60.3V35.3C14 35.1 14.1 34.8 14.3 34.7C14.5 34.6 14.8 34.5 15 34.6L43 44.6C43.3 44.7 43.5 45 43.5 45.3V70.3C43.5 70.5 43.4 70.8 43.2 70.9C43.1 71 42.9 71 42.8 71ZM15.5 59.7L42 69.2V45.8L15.5 36.3V59.7Z" fill="#2B2929"/>
<path d="M38.8008 52.2L10.8008 42.2L14.8008 35.2L42.8008 45.2L38.8008 52.2Z" fill="white"/>
<path d="M34.1992 47.7L12.1992 39.7999L14.7992 35.2L38.3992 43.5999L36.5992 46.7C36.0992 47.6 35.0992 48 34.1992 47.7Z" fill="white"/>
<path d="M38.8 53C38.7 53 38.6 53 38.5 53L10.5 43C10.3 42.9 10.1 42.8 10 42.6C10 42.3 10 42.1 10.1 41.9L14.1 34.9C14.3 34.6 14.7 34.4 15 34.6L43 44.6C43.2 44.7 43.4 44.8 43.5 45C43.6 45.2 43.6 45.4 43.4 45.6L39.4 52.6C39.3 52.9 39 53 38.8 53ZM11.9 41.8L38.5 51.3L41.7 45.6L15.1 36.1L11.9 41.8Z" fill="#2B2929"/>
<path d="M42.8008 70.1999L70.8008 60.2V35.2L42.8008 45.2V70.1999Z" fill="white"/>
<path d="M42.8008 65.7999L65.5008 57.7C66.3008 57.4 66.8008 56.6999 66.8008 55.7999V36.7L42.8008 45.2999V65.7999Z" fill="white"/>
<path d="M42.8016 71C42.6016 71 42.5016 71 42.4016 70.9C42.2016 70.8 42.1016 70.5 42.1016 70.3V45.3C42.1016 45 42.3016 44.7 42.6016 44.6L70.6016 34.6C70.8016 34.5 71.1016 34.6 71.3016 34.7C71.5016 34.8 71.6016 35.1 71.6016 35.3V60.3C71.6016 60.6 71.4016 60.9 71.1016 61L43.0016 71C42.9016 71 42.8016 71 42.8016 71ZM43.5016 45.8V69.2L70.0016 59.7V36.3L43.5016 45.8Z" fill="#2B2929"/>
<path d="M46.8008 52.2L74.8008 42.2L70.8008 35.2L42.8008 45.2L46.8008 52.2Z" fill="white"/>
<path d="M45.3008 49.6L66.5008 42C67.7008 41.6 68.2008 40.2 67.6008 39.1L66.3008 36.8L42.8008 45.2001L45.3008 49.6Z" fill="white"/>
<path d="M46.7984 53C46.4984 53 46.2984 52.9 46.0984 52.6L42.0984 45.6C41.9984 45.4 41.9984 45.2 42.0984 45C42.1984 44.8 42.2984 44.6 42.5984 44.6L70.5984 34.6C70.8984 34.5 71.2984 34.6 71.4984 34.9L75.4984 41.9C75.5984 42.1 75.5984 42.3 75.5984 42.5C75.4984 42.7 75.3984 42.9 75.0984 42.9L46.9984 53C46.8984 53 46.7984 53 46.7984 53ZM43.8984 45.7L47.0984 51.4L73.6984 41.9L70.4984 36.2L43.8984 45.7Z" fill="#2B2929"/>
<path d="M48.8008 19.5V39.7999H36.8008V19.5H28.8008L42.8008 5.19995L56.7008 19.5H48.8008Z" fill="white"/>
<path d="M43.3002 39H37.5002V19.5C37.5002 19.1 37.2002 18.7 36.7002 18.7H30.5002L42.8002 6.3L46.0002 9.6C46.1002 9.7 46.2002 9.7 46.3002 9.6L47.0002 8.8C47.1002 8.7 47.1002 8.6 47.0002 8.5L43.3002 4.7C43.2002 4.6 43.0002 4.5 42.8002 4.5C42.6002 4.5 42.4002 4.6 42.3002 4.7L28.2002 19C28.0002 19.2 27.9002 19.5 28.0002 19.8C28.1002 20.1 28.4002 20.3 28.7002 20.3H36.0002V39.8C36.0002 40.2 36.3002 40.6 36.8002 40.6H43.3002C43.4002 40.6 43.5002 40.5 43.5002 40.4V39.3C43.5002 39.1 43.4002 39 43.3002 39Z" fill="#FFBC57"/>
<path d="M48 9.89995L47.2 10.7C47.1 10.8 47.1 10.9 47.2 11L54.9 18.8H48.7C48.3 18.8 47.9 19.1 47.9 19.6V39H45.1C45 39 45 39.1 45 39.2V40.2999C45 40.4 45.1 40.5 45.2 40.5H48.8C49.2 40.5 49.6 40.2 49.6 39.7V20.3H56.8C57.1 20.3 57.4 20.1 57.5 19.8C57.6 19.5 57.6 19.2 57.3 19L48.4 9.89995C48.3 9.79995 48.1 9.79995 48 9.89995Z" fill="#2B2929"/>
</svg>
