<svg width="80" height="80" viewBox="0 0 80 80" fill="none" xmlns="http://www.w3.org/2000/svg">
<path d="M62.3187 40.8467C70.5007 40.8467 77.1335 34.2139 77.1335 26.0319C77.1335 17.8499 70.5007 11.217 62.3187 11.217C54.1367 11.217 47.5039 17.8499 47.5039 26.0319C47.5039 34.2139 54.1367 40.8467 62.3187 40.8467Z" fill="#FFBC57"/>
<path d="M21.6828 25.3968C28.6959 25.3968 34.3812 19.7116 34.3812 12.6984C34.3812 5.68527 28.6959 0 21.6828 0C14.6696 0 8.98438 5.68527 8.98438 12.6984C8.98438 19.7116 14.6696 25.3968 21.6828 25.3968Z" fill="#FFBC57"/>
<path d="M23.164 80.0002C34.8526 80.0002 44.328 70.5247 44.328 58.8361C44.328 47.1476 34.8526 37.6721 23.164 37.6721C11.4755 37.6721 2 47.1476 2 58.8361C2 70.5247 11.4755 80.0002 23.164 80.0002Z" fill="#FFBC57"/>
<path d="M39.3546 23.3864C32.3705 24.2329 26.6562 29.8414 25.7038 36.7197C25.1747 40.4234 25.9155 43.9155 27.6086 46.8784L25.4922 55.0266L33.6403 53.016C36.6033 54.7091 40.0954 55.4499 43.7991 54.9208C50.7832 53.8626 56.2858 48.2541 57.1324 41.27C58.4022 30.7938 49.725 22.1165 39.3546 23.3864Z" fill="white"/>
<path d="M41.3654 55.873C38.614 55.873 35.9685 55.238 33.5347 53.8624L25.704 55.7671C25.3865 55.873 25.1749 55.7671 24.9632 55.5555C24.7516 55.3439 24.6458 55.0264 24.7516 54.8148L26.6564 46.9841C24.9632 43.8095 24.3283 40.2116 24.8574 36.6137C25.9156 29.2063 31.8415 23.492 39.249 22.5396C44.4341 21.9047 49.5135 23.5978 53.1114 27.3015C56.8151 31.0052 58.5082 35.9788 57.8733 41.164C56.9209 48.5714 51.2066 54.4973 43.7992 55.5555C43.0585 55.7671 42.2119 55.873 41.3654 55.873ZM33.6405 52.1693C33.7463 52.1693 33.9579 52.1693 34.0638 52.2751C37.0267 53.9682 40.3072 54.4973 43.6934 54.074C50.3601 53.1216 55.5453 47.7248 56.3918 41.0581C56.9209 36.4021 55.4394 31.746 52.0532 28.4655C48.7728 25.1851 44.1167 23.5978 39.4606 24.1269C32.7939 24.9735 27.3971 30.1587 26.4447 36.8253C25.9156 40.2116 26.5505 43.492 28.2437 46.455C28.3495 46.6666 28.3495 46.8783 28.3495 46.9841L26.6564 53.9682L33.5347 52.2751C33.5347 52.1693 33.6405 52.1693 33.6405 52.1693Z" fill="#2B2929"/>
<path d="M41.3659 44.3389C40.9426 44.3389 40.5194 44.0214 40.5194 43.4923V42.8574C40.5194 40.3177 42.0008 39.1537 43.1649 38.3072C44.2231 37.5664 44.9638 36.9315 44.9638 35.45C44.9638 33.7569 43.9056 32.3812 42.4241 31.958C41.2601 31.6405 39.9903 31.8521 39.0379 32.4871C38.0855 33.2278 37.5564 34.286 37.5564 35.45C37.5564 35.8733 37.2389 36.2966 36.7098 36.2966C36.2866 36.2966 35.8633 35.9791 35.8633 35.45C35.8633 33.7569 36.7098 32.1696 37.9797 31.2172C39.3553 30.159 41.0485 29.9474 42.7416 30.3707C44.9638 31.0056 46.4453 33.0162 46.4453 35.45C46.4453 37.7781 45.0696 38.7304 43.9056 39.577C42.8474 40.4236 41.895 41.0585 41.895 42.8574V43.4923C42.2125 44.0214 41.895 44.3389 41.3659 44.3389Z" fill="#FFBC57"/>
<path d="M42.1075 47.4075C41.6843 46.9843 41.0493 46.9843 40.6261 47.4075C40.4144 47.6192 40.3086 47.8308 40.3086 48.1483C40.3086 48.4658 40.4144 48.6774 40.6261 48.889C40.8377 49.1007 41.0493 49.2065 41.3668 49.2065C41.6843 49.2065 41.8959 49.1007 42.1075 48.889C42.3192 48.6774 42.425 48.4658 42.425 48.1483C42.425 47.8308 42.3192 47.5134 42.1075 47.4075Z" fill="#FFBC57"/>
<path d="M41.3664 70.8996C40.9431 70.8996 40.5199 70.5821 40.5199 70.053C40.5199 69.6297 40.8373 69.2065 41.3664 69.2065C57.8744 69.2065 71.3135 55.7673 71.3135 39.2594C71.3135 22.9631 57.8744 9.52393 41.3664 9.52393C24.9643 9.52393 11.5252 22.9631 11.5252 39.3652C11.5252 39.8943 11.2077 40.2118 10.6786 40.2118C10.2553 40.2118 9.83203 39.8943 9.83203 39.3652C9.83203 22.0107 23.9061 7.83081 41.2606 7.83081C58.6151 7.83081 72.9008 22.0107 72.9008 39.3652C72.9008 56.7197 58.7209 70.8996 41.3664 70.8996Z" fill="#2B2929"/>
<path d="M44.539 73.2281H38.1898C35.8618 73.2281 33.957 71.3233 33.957 68.9953C33.957 66.6672 35.8618 64.7625 38.1898 64.7625H44.539C46.8671 64.7625 48.7718 66.6672 48.7718 68.9953C48.7718 71.4291 46.9729 73.2281 44.539 73.2281Z" fill="white"/>
<path d="M44.5379 74.0743H38.1887C35.4374 74.0743 33.1094 71.852 33.1094 68.9949C33.1094 66.2436 35.3316 63.9155 38.1887 63.9155H44.5379C47.2893 63.9155 49.6173 66.1377 49.6173 68.9949C49.6173 71.852 47.3951 74.0743 44.5379 74.0743ZM38.1887 65.6086C36.284 65.6086 34.6967 67.196 34.6967 69.1007C34.6967 71.0055 36.284 72.5928 38.1887 72.5928H44.5379C46.4427 72.5928 48.03 71.0055 48.03 69.1007C48.03 67.196 46.4427 65.6086 44.5379 65.6086H38.1887Z" fill="#2B2929"/>
<path d="M15.9695 51.0058C11.3134 51.0058 7.50391 47.1962 7.50391 42.5402V36.191C7.50391 31.5349 11.3134 27.7253 15.9695 27.7253C17.1335 27.7253 18.0859 28.6777 18.0859 29.8417V48.8894C18.0859 50.1592 17.1335 51.0058 15.9695 51.0058Z" fill="white"/>
<path d="M15.9684 51.852C10.8891 51.852 6.65625 47.725 6.65625 42.5398V36.1906C6.65625 31.1112 10.7832 26.8784 15.9684 26.8784C17.5557 26.8784 18.9314 28.1483 18.9314 29.8414V48.889C18.9314 50.5821 17.6615 51.852 15.9684 51.852ZM15.9684 28.5715C11.7356 28.5715 8.24355 32.0636 8.24355 36.2964V42.6456C8.24355 46.8784 11.7356 50.3705 15.9684 50.3705C16.7092 50.3705 17.3441 49.7356 17.3441 48.9948V29.9472C17.3441 29.2065 16.7092 28.5715 15.9684 28.5715Z" fill="#2B2929"/>
<path d="M12.7919 46.561C12.3686 46.561 11.9453 46.2435 11.9453 45.7144V33.016C11.9453 32.5927 12.2628 32.1694 12.7919 32.1694C13.2152 32.1694 13.6384 32.4869 13.6384 33.016V45.7144C13.6384 46.2435 13.321 46.561 12.7919 46.561Z" fill="#2B2929"/>
<path d="M66.7609 51.0058C65.5969 51.0058 64.6445 50.0534 64.6445 48.8894V29.8417C64.6445 28.6777 65.5969 27.7253 66.7609 27.7253C71.417 27.7253 75.2265 31.5349 75.2265 36.191V42.5402C75.2265 47.3021 71.5228 51.0058 66.7609 51.0058Z" fill="white"/>
<path d="M66.7634 51.852C65.1761 51.852 63.9062 50.5821 63.9062 48.889V29.8414C63.9062 28.2541 65.1761 26.8784 66.7634 26.8784C71.8428 26.8784 76.0756 31.0054 76.0756 36.1906V42.5398C76.0756 47.725 71.9486 51.852 66.7634 51.852ZM66.7634 28.5715C66.0227 28.5715 65.4936 29.2065 65.4936 29.9472V48.9948C65.4936 49.7356 66.1285 50.3705 66.7634 50.3705C70.9962 50.3705 74.4883 46.8784 74.4883 42.6456V36.2964C74.4883 31.9578 70.9962 28.5715 66.7634 28.5715Z" fill="#2B2929"/>
<path d="M69.9364 46.561C69.5131 46.561 69.0898 46.2435 69.0898 45.7144V33.016C69.0898 32.5927 69.4073 32.1694 69.9364 32.1694C70.3597 32.1694 70.783 32.4869 70.783 33.016V45.7144C70.783 46.2435 70.4655 46.561 69.9364 46.561Z" fill="#2B2929"/>
<path d="M23.4833 18.5188C23.5891 18.413 23.5891 18.5188 23.4833 18.5188C23.2716 18.6247 22.9542 18.8363 22.6367 18.9421C23.06 18.8363 23.2716 18.7305 23.4833 18.5188Z" fill="#FFBC57"/>
<path d="M41.3652 5.50305C32.8996 5.50305 25.1747 8.57184 19.2488 13.757C18.1906 14.6036 18.1906 16.1909 19.143 17.1433L20.4128 18.4131C21.2594 19.2597 22.635 19.2597 23.5874 18.5189C28.3493 14.3919 34.5927 11.9581 41.471 11.9581C48.2435 11.9581 54.5927 14.3919 59.3546 18.5189C60.307 19.2597 61.6827 19.2597 62.5292 18.4131L63.7991 17.1433C64.7515 16.1909 64.7515 14.6036 63.6933 13.757C57.6615 8.67765 49.8308 5.50305 41.3652 5.50305Z" fill="white"/>
<path d="M60.8351 19.8945C60.0944 19.8945 59.3536 19.6828 58.8245 19.1537C53.9568 14.9209 47.8192 12.6987 41.3642 12.6987C35.015 12.6987 28.8774 15.0268 24.0097 19.1537C22.7399 20.2119 20.9409 20.2119 19.7769 19.0479L18.5071 17.7781C17.8721 17.1432 17.5547 16.2966 17.5547 15.45C17.5547 14.6035 17.978 13.7569 18.6129 13.2278C24.8563 7.83099 32.8986 4.76221 41.2584 4.76221C49.6182 4.76221 57.6605 7.72517 63.9039 13.2278C64.5388 13.7569 64.9621 14.6035 64.9621 15.45C64.9621 16.2966 64.6446 17.1432 64.0097 17.7781L62.7399 19.0479C62.4224 19.577 61.5759 19.8945 60.8351 19.8945ZM41.3642 11.1114C48.1367 11.1114 54.5917 13.5453 59.7769 17.8839C60.4118 18.413 61.2584 18.413 61.8933 17.7781L63.1632 16.5082C63.4806 16.1908 63.5864 15.7675 63.5864 15.3442C63.5864 14.9209 63.3748 14.4977 63.0573 14.286C57.0256 9.20665 49.3007 6.34951 41.3642 6.34951C33.4277 6.34951 25.7028 9.20665 19.7769 14.3918C19.4594 14.7093 19.2478 15.0268 19.2478 15.45C19.2478 15.8733 19.3536 16.2966 19.6711 16.6141L20.9409 17.8839C21.47 18.413 22.4224 18.5188 23.0573 17.9897C28.1367 13.5453 34.6975 11.1114 41.3642 11.1114Z" fill="#2B2929"/>
</svg>
