<svg width="80" height="80" viewBox="0 0 80 80" fill="none" xmlns="http://www.w3.org/2000/svg">
<path d="M13.9651 73.8179C21.6778 73.8179 27.9302 67.5655 27.9302 59.8528C27.9302 52.1401 21.6778 45.8877 13.9651 45.8877C6.25238 45.8877 0 52.1401 0 59.8528C0 67.5655 6.25238 73.8179 13.9651 73.8179Z" fill="#FFBC57"/>
<path d="M36.2084 24.9402C42.8192 24.9402 48.1784 19.581 48.1784 12.9701C48.1784 6.35919 42.8192 1 36.2084 1C29.5975 1 24.2383 6.35919 24.2383 12.9701C24.2383 19.581 29.5975 24.9402 36.2084 24.9402Z" fill="#FFBC57"/>
<path d="M60.0517 78.8055C71.0698 78.8055 80.0018 69.8735 80.0018 58.8554C80.0018 47.8372 71.0698 38.9053 60.0517 38.9053C49.0335 38.9053 40.1016 47.8372 40.1016 58.8554C40.1016 69.8735 49.0335 78.8055 60.0517 78.8055Z" fill="#FFBC57"/>
<path d="M41.1975 73.718C58.8266 73.718 73.1177 59.4268 73.1177 41.7978C73.1177 24.1687 58.8266 9.87756 41.1975 9.87756C23.5685 9.87756 9.27734 24.1687 9.27734 41.7978C9.27734 59.4268 23.5685 73.718 41.1975 73.718Z" fill="white"/>
<path d="M41.1987 74.4166C23.1438 74.4166 8.48047 59.7533 8.48047 41.6984C8.48047 23.6435 23.1438 9.07996 41.1987 9.07996C59.2535 9.07996 73.8171 23.7433 73.8171 41.7982C73.8171 59.853 59.1538 74.4166 41.1987 74.4166ZM41.1987 10.5762C23.9418 10.5762 9.97673 24.5413 9.97673 41.7982C9.97673 58.9553 23.9418 73.0201 41.1987 73.0201C58.3558 73.0201 72.4206 59.055 72.4206 41.7982C72.3209 24.5413 58.3558 10.5762 41.1987 10.5762Z" fill="#2B2929"/>
<path d="M40.6011 29.8278L34.3168 25.6382C30.2271 22.945 24.8405 23.5435 21.5488 27.1345L16.262 32.8203C15.2645 33.9175 14.7657 35.3141 14.9652 36.8103L18.9553 68.2318C19.1548 69.8278 20.651 71.0248 22.247 70.8253L43.9927 68.132C45.5887 67.9325 46.7857 66.4363 46.5862 64.8402L42.6959 33.4188C42.5961 31.9225 41.7981 30.6258 40.6011 29.8278Z" fill="white"/>
<path d="M21.948 71.5239C21.15 71.5239 20.352 71.2247 19.6538 70.7259C18.8557 70.1274 18.357 69.2296 18.2572 68.2321L14.367 36.9104C14.1675 35.2147 14.6662 33.5189 15.8632 32.3219L21.15 26.6361C24.741 22.7459 30.5266 22.0476 34.9156 25.0401L41.1999 29.2296C42.5964 30.1274 43.4941 31.6237 43.6936 33.3194L47.5839 64.7409C47.6837 65.7384 47.4842 66.7359 46.7859 67.5339C46.1874 68.3319 45.2897 68.8306 44.2922 68.9304L22.5465 71.6237C22.2473 71.5239 22.0478 71.5239 21.948 71.5239ZM28.8308 24.6411C26.337 24.6411 23.943 25.6386 22.1475 27.6336L16.8607 33.3194C16.0627 34.2172 15.6637 35.5139 15.7635 36.7109L19.6538 68.0326C19.7535 68.6311 20.0528 69.1299 20.5515 69.5289C21.0503 69.9279 21.6488 70.0276 22.2473 70.0276L43.9929 67.3344C44.5914 67.2346 45.0902 66.9354 45.4892 66.4366C45.8882 65.9379 45.9879 65.3394 45.9879 64.7409L42.0976 33.3194C41.8981 32.1224 41.2996 31.0252 40.3021 30.3269L33.9181 26.2371C32.4218 25.2396 30.6263 24.6411 28.8308 24.6411Z" fill="#2B2929"/>
<path d="M46.0863 20.0524L38.9042 17.7581C34.3157 16.2618 29.2284 18.3566 27.0339 22.7456L23.5426 29.6284C22.9441 30.9252 22.9441 32.5212 23.5426 33.818L35.9117 62.9451C36.61 64.4414 38.3057 65.1396 39.802 64.5411L60.0514 55.8628C61.5476 55.2643 62.2459 53.4688 61.6474 51.9726L49.1785 22.8454C48.58 21.5486 47.4828 20.5511 46.0863 20.0524Z" fill="white"/>
<path d="M38.6043 65.4391C37.108 65.4391 35.8112 64.5413 35.113 63.1448L22.8437 34.1174C22.1454 32.5213 22.2452 30.8256 22.9434 29.3293L26.4347 22.4465C28.8287 17.7583 34.2152 15.464 39.2028 17.06L46.3848 19.3543C47.9808 19.853 49.2776 21.05 49.8761 22.5463L62.2452 51.6735C63.0432 53.5687 62.1454 55.7632 60.2502 56.5612L40.1005 65.1398C39.6018 65.3393 39.103 65.4391 38.6043 65.4391ZM35.911 18.0575C32.5195 18.0575 29.4272 19.9528 27.8312 23.1448L24.3399 30.0276C23.7414 31.1248 23.7414 32.4216 24.2402 33.6186L36.6093 62.646C37.108 63.7433 38.4048 64.3418 39.6018 63.843L59.7514 55.2645C60.8487 54.7657 61.4472 53.469 60.9484 52.272L48.4796 23.1448C47.9808 22.0475 47.0831 21.1498 45.8861 20.7508L38.704 18.4565C37.8063 18.1573 36.8088 18.0575 35.911 18.0575Z" fill="#2B2929"/>
<path d="M35.8132 32.4215C35.115 32.4215 34.5165 32.3218 33.8182 32.0225C32.5215 31.5238 31.5239 30.5263 30.9254 29.2295C30.3269 27.9327 30.3269 26.5362 30.9254 25.2395C31.4242 23.9427 32.4217 22.9452 33.7185 22.3467C35.0152 21.7482 36.4117 21.7482 37.7085 22.3467C39.0052 22.8455 40.0027 23.843 40.6013 25.1397C41.1998 26.4365 41.1998 27.833 40.6013 29.1297C40.1025 30.4265 39.105 31.424 37.8082 32.0225C37.2097 32.222 36.5115 32.4215 35.8132 32.4215ZM35.8132 23.444C35.3145 23.444 34.8157 23.5437 34.317 23.7432C33.4192 24.1422 32.721 24.8405 32.322 25.7382C31.9229 26.636 31.9229 27.6335 32.322 28.631C32.721 29.5288 33.4192 30.227 34.317 30.626C35.2147 31.025 36.2122 31.025 37.2097 30.626C38.1075 30.227 38.8057 29.5288 39.2047 28.631C39.6037 27.7332 39.6037 26.7357 39.2047 25.7382C38.8057 24.8405 38.1075 24.1422 37.11 23.7432C36.8107 23.5437 36.312 23.444 35.8132 23.444Z" fill="#2B2929"/>
<path d="M37.4085 28.4311C36.2115 28.4311 35.4135 27.8326 35.0145 27.3339C34.1168 26.2366 34.017 24.5409 34.6155 22.4461C34.7153 22.0471 35.1143 21.8476 35.5133 21.9474C35.9123 22.0471 36.1118 22.4461 36.012 22.8451C35.5133 24.3414 35.613 25.7379 36.1118 26.3364C36.411 26.7354 36.9098 26.8351 37.5083 26.8351C39.9023 26.6356 43.2938 23.5434 44.8898 20.0521C46.0868 17.5583 45.8873 15.8626 45.3886 15.1643C45.0893 14.7653 44.5906 14.5658 43.9921 14.5658C42.4958 14.6656 40.5008 15.9623 38.805 17.9573C38.5058 18.2566 38.1068 18.3563 37.7078 18.0571C37.4085 17.7578 37.3088 17.3588 37.608 16.9598C39.6031 14.6656 41.8973 13.1693 43.8923 12.9698C45.0893 12.87 46.0868 13.269 46.6853 14.1668C47.6829 15.5633 47.4834 17.9573 46.2863 20.5508C44.3911 24.6406 40.6006 28.0321 37.608 28.2316C37.608 28.4311 37.5083 28.4311 37.4085 28.4311Z" fill="#2B2929"/>
<path d="M39.7023 58.5562C39.6026 58.5562 39.5028 58.5562 39.4031 58.4565C39.004 58.257 38.8045 57.858 39.004 57.459L47.9816 35.2146C48.1811 34.8156 48.5801 34.6161 48.9791 34.8156C49.3781 35.0151 49.5776 35.4141 49.3781 35.8131L40.4006 58.0575C40.3008 58.3567 40.0016 58.5562 39.7023 58.5562Z" fill="#FFBC57"/>
<path d="M39.8026 42.6958C40.5008 44.1921 39.7028 45.9876 38.2066 46.6858C36.7103 47.3841 34.9148 46.5861 34.2165 45.0898C33.5183 43.5936 34.3163 41.7981 35.8126 41.0998C37.4086 40.4015 39.2041 41.0998 39.8026 42.6958Z" fill="white"/>
<path d="M37.0093 47.5835C36.5106 47.5835 36.0118 47.4838 35.6128 47.2843C34.7151 46.8853 33.917 46.187 33.518 45.2893C32.72 43.394 33.6178 41.1995 35.5131 40.3017C37.4083 39.5037 39.6028 40.4015 40.5006 42.2967C40.8996 43.1945 40.8996 44.2918 40.5006 45.1895C40.1016 46.0873 39.4033 46.8853 38.5056 47.2843C38.0068 47.4838 37.5081 47.5835 37.0093 47.5835ZM37.0093 41.5985C36.7101 41.5985 36.4108 41.6982 36.1116 41.798C34.9146 42.2967 34.4158 43.5935 34.9146 44.7905C35.1141 45.389 35.6128 45.788 36.1116 45.9875C36.7101 46.187 37.3086 46.187 37.8073 45.9875C38.4058 45.788 38.8048 45.2893 39.0043 44.7905C39.2038 44.192 39.2038 43.5935 39.0043 43.0947C38.7051 42.0972 37.9071 41.5985 37.0093 41.5985Z" fill="#FFBC57"/>
<path d="M54.0682 48.3818C54.7665 49.878 53.9685 51.6736 52.4722 52.3718C50.9759 53.0701 49.1804 52.2721 48.4822 50.7758C47.7839 49.2795 48.5819 47.484 50.0782 46.7858C51.6742 46.1873 53.4697 46.8855 54.0682 48.3818Z" fill="white"/>
<path d="M51.2749 53.3689C49.7787 53.3689 48.3822 52.4712 47.7837 51.0747C46.9857 49.1794 47.8834 46.9849 49.7787 46.0871C51.6739 45.2891 53.8685 46.1869 54.7662 48.0821C55.5642 49.9774 54.6665 52.1719 52.7712 53.0697C52.2724 53.2692 51.7737 53.3689 51.2749 53.3689ZM51.2749 47.2841C50.9757 47.2841 50.6764 47.3839 50.3772 47.4836C49.1802 47.9824 48.6814 49.2792 49.1802 50.4762C49.6789 51.6732 50.9757 52.1719 52.1727 51.6732C53.3697 51.1744 53.8685 49.8777 53.3697 48.6806C53.0704 47.8826 52.1727 47.2841 51.2749 47.2841Z" fill="#FFBC57"/>
<path d="M22.3449 54.9651C21.9459 54.9651 21.6467 54.6658 21.6467 54.2668L19.8511 39.6035C19.7514 39.2045 20.0506 38.8055 20.5494 38.8055C20.9484 38.7057 21.3474 39.005 21.3474 39.5037L23.1429 54.1671C23.1429 54.5661 22.8437 54.8653 22.3449 54.9651C22.4447 54.9651 22.3449 54.9651 22.3449 54.9651Z" fill="#2B2929"/>
<path d="M23.4427 63.4438C23.0437 63.4438 22.7444 63.1446 22.7444 62.7456L22.2457 58.7555C22.1459 58.3565 22.4452 57.9575 22.9439 57.9575C23.3429 57.9575 23.7419 58.157 23.7419 58.6558L24.2407 62.6458C24.1409 62.9451 23.9414 63.3441 23.4427 63.4438Z" fill="#2B2929"/>
</svg>
