<svg width="80" height="80" viewBox="0 0 80 80" fill="none" xmlns="http://www.w3.org/2000/svg">
<path d="M66.1709 40.8023C73.8074 40.8023 79.9981 34.6116 79.9981 26.9751C79.9981 19.3386 73.8074 13.1479 66.1709 13.1479C58.5344 13.1479 52.3438 19.3386 52.3438 26.9751C52.3438 34.6116 58.5344 40.8023 66.1709 40.8023Z" fill="#FFBC57"/>
<path d="M34.2698 24.7037C40.8154 24.7037 46.1217 19.3974 46.1217 12.8519C46.1217 6.30625 40.8154 1 34.2698 1C27.7242 1 22.418 6.30625 22.418 12.8519C22.418 19.3974 27.7242 24.7037 34.2698 24.7037Z" fill="#FFBC57"/>
<path d="M19.7531 78.5308C30.6624 78.5308 39.5062 69.6871 39.5062 58.7777C39.5062 47.8684 30.6624 39.0247 19.7531 39.0247C8.84376 39.0247 0 47.8684 0 58.7777C0 69.6871 8.84376 78.5308 19.7531 78.5308Z" fill="#FFBC57"/>
<path d="M69.0381 41.6289L63.9023 39.4561H50.0751C47.9023 39.4561 46.1245 37.6783 46.1245 35.5055V20.6907H39.2109V60.1968H66.6677C67.4579 60.1968 68.248 59.9006 68.7418 59.308L69.927 58.1228C70.5196 57.5302 70.8159 56.8388 70.8159 56.0487V44.2956C70.8159 43.1104 70.1245 42.024 69.0381 41.6289Z" fill="white"/>
<path d="M63.1122 41.6289L57.9764 39.4561H50.0751C47.9023 39.4561 46.1245 37.6783 46.1245 35.5055V20.6907H39.2109V60.1968H60.7418C61.5319 60.1968 62.322 59.9006 62.8159 59.308L64.0011 58.1228C64.5937 57.5302 64.8899 56.8388 64.8899 56.0487V44.2956C64.8899 43.1104 64.1986 42.024 63.1122 41.6289Z" fill="white"/>
<path d="M60.9414 47.3574L63.9044 53.2833H70.8179V47.3574H60.9414Z" fill="white"/>
<path d="M60.9414 47.3574L62.9167 51.308H66.8673C67.4599 51.308 67.855 50.913 67.855 50.3204V47.3574H60.9414Z" fill="white"/>
<path d="M70.8178 53.9748H63.9042C63.6079 53.9748 63.4103 53.7773 63.2128 53.5797L60.2499 47.6538C60.1511 47.4563 60.1511 47.16 60.2499 46.9624C60.3486 46.7649 60.6449 46.5674 60.8424 46.5674H70.719C71.1141 46.5674 71.5091 46.8637 71.5091 47.3575V53.2834C71.6079 53.6785 71.3116 53.9748 70.8178 53.9748ZM64.398 52.4933H70.1264V48.0489H62.2252L64.398 52.4933Z" fill="#2B2929"/>
<path d="M50.0756 39.4561H63.9028L56.2978 23.9499C55.3102 21.9746 53.2361 20.6907 50.9645 20.6907H46.125V35.5055C46.125 37.6783 47.9028 39.4561 50.0756 39.4561Z" fill="white"/>
<path d="M56.2978 23.9499C55.3102 21.9746 53.2361 20.6907 50.9645 20.6907H46.125C48.2978 20.6907 50.3719 21.9746 51.3596 23.9499L58.9645 39.4561H63.9028L56.2978 23.9499Z" fill="white"/>
<path d="M63.9038 40.1477H50.0767C47.5088 40.1477 45.3359 38.0736 45.3359 35.5057V20.6909C45.3359 20.2958 45.6322 19.9008 46.1261 19.9008H50.9656C53.5335 19.9008 55.8051 21.2835 56.9903 23.6538L64.5952 39.16C64.694 39.3575 64.694 39.6538 64.5952 39.8514C64.3977 40.0489 64.2001 40.1477 63.9038 40.1477ZM46.9162 21.3822V35.5057C46.9162 37.2835 48.3977 38.6662 50.1754 38.6662H62.8174L55.7063 24.2464C54.8174 22.4687 53.0396 21.3822 51.0643 21.3822H46.9162Z" fill="#2B2929"/>
<path d="M9.58078 12.7894C8.49436 12.7894 7.60547 13.6783 7.60547 14.7647V58.2215C7.60547 59.3079 8.49436 60.1968 9.58078 60.1968H39.2104V14.7647C39.2104 13.6783 38.3215 12.7894 37.2351 12.7894H9.58078Z" fill="white"/>
<path d="M9.58078 12.7894C8.49436 12.7894 7.60547 13.6783 7.60547 14.7647V55.2586H31.3092C32.3956 55.2586 33.2845 54.3697 33.2845 53.2833V12.7894H9.58078Z" fill="white"/>
<path d="M39.2115 60.8886H9.58184C8.10036 60.8886 6.81641 59.7035 6.81641 58.1232V14.6664C6.91517 13.1849 8.10036 11.9998 9.58184 11.9998H37.2362C38.7176 11.9998 40.0016 13.1849 40.0016 14.7652V60.1973C40.0016 60.5923 39.7053 60.8886 39.2115 60.8886ZM9.58184 13.4812C8.89048 13.4812 8.29789 14.0738 8.29789 14.7652V58.222C8.29789 58.9133 8.89048 59.5059 9.58184 59.5059H38.5201V14.7652C38.5201 14.0738 37.9275 13.4812 37.2362 13.4812H9.58184Z" fill="#2B2929"/>
<path d="M66.6688 60.8883H39.212C38.8169 60.8883 38.4219 60.592 38.4219 60.0982V20.592C38.4219 20.1969 38.7182 19.8019 39.212 19.8019H46.1256C46.5206 19.8019 46.9157 20.0982 46.9157 20.592V35.4068C46.9157 37.1846 48.3972 38.5673 50.175 38.5673H64.0021C64.1009 38.5673 64.1996 38.5673 64.2984 38.6661L69.4342 40.8389C70.8169 41.4315 71.7058 42.7155 71.7058 44.1969V55.8513C71.7058 56.8389 71.3108 57.7278 70.6194 58.5179L69.4342 59.7031C68.5453 60.4932 67.6564 60.8883 66.6688 60.8883ZM40.0021 59.4068H66.6688C67.2614 59.4068 67.854 59.2093 68.249 58.7155L69.4342 57.5303C69.8293 57.1352 70.1256 56.5426 70.1256 55.95V44.2957C70.1256 43.4068 69.6317 42.6167 68.7429 42.2216L63.8046 40.0488H50.0762C47.5083 40.0488 45.3355 37.9747 45.3355 35.4068V21.3821H39.9034V59.4068H40.0021Z" fill="#2B2929"/>
<path d="M23.4103 66.1228C26.6831 66.1228 29.3362 63.4697 29.3362 60.1969C29.3362 56.9241 26.6831 54.271 23.4103 54.271C20.1375 54.271 17.4844 56.9241 17.4844 60.1969C17.4844 63.4697 20.1375 66.1228 23.4103 66.1228Z" fill="white"/>
<path d="M26.5714 55.0613C27.164 55.9502 27.4603 57.0366 27.4603 58.123C27.4603 61.3823 24.7936 64.0489 21.5344 64.0489C20.448 64.0489 19.3615 63.7526 18.4727 63.16C19.5591 64.8391 21.3369 66.0242 23.5097 66.0242C26.769 66.0242 29.4356 63.3576 29.4356 60.0983C29.3369 58.0242 28.2504 56.1477 26.5714 55.0613Z" fill="white"/>
<path d="M23.4075 66.8142C19.7531 66.8142 16.6914 63.8512 16.6914 60.0981C16.6914 56.4438 19.6544 53.3821 23.4075 53.3821C27.1605 53.3821 30.1235 56.345 30.1235 60.0981C30.1235 63.8512 27.1605 66.8142 23.4075 66.8142ZM23.4075 54.9623C20.5433 54.9623 18.1729 57.3327 18.1729 60.1969C18.1729 63.0611 20.5433 65.4315 23.4075 65.4315C26.2717 65.4315 28.642 63.0611 28.642 60.1969C28.642 57.3327 26.2717 54.9623 23.4075 54.9623Z" fill="#2B2929"/>
<path d="M23.4089 62.1723C24.4998 62.1723 25.3842 61.2879 25.3842 60.197C25.3842 59.1061 24.4998 58.2217 23.4089 58.2217C22.318 58.2217 21.4336 59.1061 21.4336 60.197C21.4336 61.2879 22.318 62.1723 23.4089 62.1723Z" fill="white"/>
<path d="M23.41 62.8636C21.9285 62.8636 20.6445 61.6784 20.6445 60.0982C20.6445 58.6167 21.8297 57.3328 23.41 57.3328C24.9902 57.3328 26.1754 58.5179 26.1754 60.0982C26.1754 61.6784 24.9902 62.8636 23.41 62.8636ZM23.41 58.913C22.7186 58.913 22.126 59.5056 22.126 60.197C22.126 60.8883 22.7186 61.4809 23.41 61.4809C24.1013 61.4809 24.6939 60.8883 24.6939 60.197C24.6939 59.5056 24.1013 58.913 23.41 58.913Z" fill="#2B2929"/>
<path d="M55.0158 66.1228C58.2886 66.1228 60.9417 63.4697 60.9417 60.1969C60.9417 56.9241 58.2886 54.271 55.0158 54.271C51.743 54.271 49.0898 56.9241 49.0898 60.1969C49.0898 63.4697 51.743 66.1228 55.0158 66.1228Z" fill="white"/>
<path d="M58.173 55.0613C58.7656 55.9502 59.0619 57.0366 59.0619 58.123C59.0619 61.3823 56.3952 64.0489 53.1359 64.0489C52.0495 64.0489 50.9631 63.7526 50.0742 63.16C51.1606 64.8391 52.9384 66.0242 55.1113 66.0242C58.3705 66.0242 61.0372 63.3576 61.0372 60.0983C60.9384 58.0242 59.852 56.1477 58.173 55.0613Z" fill="white"/>
<path d="M55.0129 66.8142C51.3586 66.8142 48.2969 63.8512 48.2969 60.0981C48.2969 56.4438 51.2598 53.3821 55.0129 53.3821C58.6672 53.3821 61.729 56.345 61.729 60.0981C61.729 63.8512 58.766 66.8142 55.0129 66.8142ZM55.0129 54.9623C52.1487 54.9623 49.7784 57.3327 49.7784 60.1969C49.7784 63.0611 52.1487 65.4315 55.0129 65.4315C57.8771 65.4315 60.2475 63.0611 60.2475 60.1969C60.2475 57.3327 57.8771 54.9623 55.0129 54.9623Z" fill="#2B2929"/>
<path d="M55.0144 62.1723C56.1053 62.1723 56.9897 61.2879 56.9897 60.197C56.9897 59.1061 56.1053 58.2217 55.0144 58.2217C53.9234 58.2217 53.0391 59.1061 53.0391 60.197C53.0391 61.2879 53.9234 62.1723 55.0144 62.1723Z" fill="white"/>
<path d="M55.0154 62.8636C53.5339 62.8636 52.25 61.6784 52.25 60.0982C52.25 58.6167 53.4352 57.3328 55.0154 57.3328C56.4969 57.3328 57.7809 58.5179 57.7809 60.0982C57.7809 61.6784 56.5957 62.8636 55.0154 62.8636ZM55.0154 58.913C54.3241 58.913 53.7315 59.5056 53.7315 60.197C53.7315 60.8883 54.3241 61.4809 55.0154 61.4809C55.7068 61.4809 56.2994 60.8883 56.2994 60.197C56.2994 59.5056 55.7068 58.913 55.0154 58.913Z" fill="#2B2929"/>
<path d="M51.065 44.0983H47.1143C46.7193 44.0983 46.3242 43.802 46.3242 43.3082C46.3242 42.9131 46.6205 42.5181 47.1143 42.5181H51.065C51.46 42.5181 51.8551 42.8144 51.8551 43.3082C51.8551 43.802 51.5588 44.0983 51.065 44.0983Z" fill="#2B2929"/>
<path d="M34.2724 38.1723H12.544C12.149 38.1723 11.7539 37.876 11.7539 37.3822C11.7539 36.9871 12.0502 36.592 12.544 36.592H34.2724C34.6675 36.592 35.0625 36.8883 35.0625 37.3822C35.0625 37.876 34.7663 38.1723 34.2724 38.1723Z" fill="#FFBC57"/>
<path d="M34.2724 44.0983H12.544C12.149 44.0983 11.7539 43.802 11.7539 43.3082C11.7539 42.9131 12.0502 42.5181 12.544 42.5181H34.2724C34.6675 42.5181 35.0625 42.8144 35.0625 43.3082C35.0625 43.802 34.7663 44.0983 34.2724 44.0983Z" fill="#FFBC57"/>
<path d="M34.2724 50.0241H12.544C12.149 50.0241 11.7539 49.7278 11.7539 49.234C11.7539 48.8389 12.0502 48.4438 12.544 48.4438H34.2724C34.6675 48.4438 35.0625 48.7401 35.0625 49.234C35.0625 49.7278 34.7663 50.0241 34.2724 50.0241Z" fill="#FFBC57"/>
<path d="M34.2724 32.2464H12.544C12.149 32.2464 11.7539 31.9501 11.7539 31.4563C11.7539 31.0612 12.0502 30.6661 12.544 30.6661H34.2724C34.6675 30.6661 35.0625 30.9624 35.0625 31.4563C35.0625 31.9501 34.7663 32.2464 34.2724 32.2464Z" fill="#FFBC57"/>
<path d="M34.2724 26.3205H12.544C12.149 26.3205 11.7539 26.0242 11.7539 25.5304C11.7539 25.1353 12.0502 24.7402 12.544 24.7402H34.2724C34.6675 24.7402 35.0625 25.0365 35.0625 25.5304C35.0625 26.0242 34.7663 26.3205 34.2724 26.3205Z" fill="#2B2929"/>
<path d="M34.2724 20.3945H12.544C12.149 20.3945 11.7539 20.0982 11.7539 19.6043C11.7539 19.2093 12.0502 18.8142 12.544 18.8142H34.2724C34.6675 18.8142 35.0625 19.1105 35.0625 19.6043C35.0625 20.0982 34.7663 20.3945 34.2724 20.3945Z" fill="#2B2929"/>
</svg>
