<svg width="42" height="40" viewBox="0 0 42 40" fill="none" xmlns="http://www.w3.org/2000/svg">
<path d="M40.3368 17.4398V17.4413L30.2049 24.772L34.1071 36.6985C34.1691 36.8846 34.2015 37.0834 34.2015 37.2864C34.2015 38.3282 33.3585 39.174 32.3167 39.174C31.9022 39.174 31.5216 39.0415 31.2114 38.8174L21.0006 31.4317L10.7897 38.8174C10.4796 39.0415 10.0989 39.174 9.68587 39.174C8.64265 39.174 7.79821 38.3296 7.79821 37.2864C7.79821 37.082 7.83204 36.8846 7.89407 36.6985L11.7977 24.772L1.66577 17.4413V17.4398C1.19209 17.0987 0.884766 16.5418 0.884766 15.9131C0.884766 14.8713 1.7278 14.0282 2.77102 14.0282H15.3136L19.1975 2.15668C19.4343 1.38555 20.1519 0.824463 21.002 0.824463C21.8506 0.824463 22.5696 1.38555 22.805 2.15668L26.6889 14.0282H39.2315C40.2733 14.0282 41.1178 14.8713 41.1178 15.9131C41.1164 16.5418 40.809 17.0987 40.3368 17.4398Z" fill="white"/>
</svg>
