<svg width="250" height="42" viewBox="0 0 250 42" fill="none" xmlns="http://www.w3.org/2000/svg">
<path d="M98.5259 32.5279H94.8927V30.6585H104.038V32.5279H100.405V41.7505H98.4006V32.5279H98.5259ZM113.058 41.7505H106.419V30.6585H112.808V32.5279H108.298V35.2697H112.307V37.1392H108.298V40.0056H112.933V41.7505H113.058ZM122.705 30.6585H124.96L121.202 36.0175L125.086 41.6258H122.83L119.949 37.5131L117.067 41.6258H114.812L118.696 36.0175L114.938 30.6585H117.193L119.949 34.6466L122.705 30.6585ZM136.486 41.7505H134.482V37.0145H129.47V41.7505H127.466V30.6585H129.47V35.1451H134.607V30.6585H136.486V41.7505ZM139.368 36.2668C139.368 34.6466 139.869 33.2757 140.996 32.154C142.124 31.0323 143.502 30.5338 145.131 30.5338C146.759 30.5338 148.137 31.0323 149.265 32.154C150.392 33.2757 150.893 34.6466 150.893 36.2668C150.893 37.8869 150.392 39.2579 149.265 40.3795C148.137 41.5012 146.759 41.9997 145.131 41.9997C143.502 41.9997 142.124 41.5012 140.996 40.3795C139.869 39.2579 139.368 37.8869 139.368 36.2668ZM141.372 36.2668C141.372 37.3884 141.748 38.2608 142.374 39.0086C143.001 39.7564 144.003 40.1303 145.005 40.1303C146.133 40.1303 147.01 39.7564 147.761 39.0086C148.388 38.2608 148.764 37.3884 148.764 36.2668C148.764 35.1451 148.388 34.1481 147.636 33.5249C146.884 32.7772 146.007 32.4033 145.005 32.4033C143.878 32.4033 143.001 32.7772 142.374 33.5249C141.748 34.1481 141.372 35.1451 141.372 36.2668ZM161.918 41.7505H160.039V32.5279H156.782L156.531 34.6466C156.406 35.8929 156.281 37.0145 156.03 37.8869C155.779 38.7594 155.654 39.5071 155.404 40.0056C155.153 40.5042 154.902 41.0027 154.527 41.2519C154.151 41.5012 153.9 41.7505 153.524 41.7505C153.149 41.8751 152.773 41.8751 152.272 41.7505V39.881C152.522 39.881 152.647 39.881 152.898 39.881C153.023 39.881 153.274 39.6318 153.399 39.3825C153.65 39.1332 153.775 38.7594 153.9 38.2608C154.276 37.1392 154.527 35.3944 154.777 32.9018L154.902 30.6585H161.918V41.7505ZM164.8 36.2668C164.8 34.6466 165.301 33.2757 166.428 32.154C167.556 31.0323 168.934 30.5338 170.563 30.5338C172.191 30.5338 173.569 31.0323 174.697 32.154C175.824 33.2757 176.326 34.6466 176.326 36.2668C176.326 37.8869 175.824 39.2579 174.697 40.3795C173.569 41.5012 172.191 41.9997 170.563 41.9997C168.934 41.9997 167.556 41.5012 166.428 40.3795C165.301 39.2579 164.8 37.8869 164.8 36.2668ZM166.929 36.2668C166.929 37.3884 167.305 38.2608 167.932 39.0086C168.558 39.7564 169.56 40.1303 170.563 40.1303C171.69 40.1303 172.567 39.7564 173.319 39.0086C173.945 38.2608 174.321 37.3884 174.321 36.2668C174.321 35.1451 173.945 34.1481 173.194 33.5249C172.442 32.7772 171.565 32.4033 170.563 32.4033C169.435 32.4033 168.558 32.7772 167.932 33.5249C167.18 34.1481 166.929 35.1451 166.929 36.2668ZM181.212 41.7505H179.207V30.6585H185.471V32.5279H181.212V41.7505ZM190.107 41.7505H188.102V30.6585H190.107V41.7505ZM192.988 28.789C192.988 28.5398 193.113 28.2905 193.239 28.0412C193.489 27.9166 193.74 27.792 193.99 27.792C194.241 27.792 194.491 27.9166 194.742 28.0412C194.993 28.1659 194.992 28.4151 194.992 28.789C194.992 29.1629 194.867 29.4122 194.742 29.5368C194.617 29.6614 194.366 29.7861 193.99 29.7861C193.74 29.7861 193.489 29.6614 193.239 29.5368C193.113 29.2875 192.988 29.0383 192.988 28.789ZM196.245 41.7505H194.241V30.6585H196.245V41.7505ZM195.619 28.789C195.619 28.5398 195.744 28.2905 195.869 28.0412C196.12 27.9166 196.371 27.792 196.621 27.792C196.872 27.792 197.122 27.9166 197.373 28.0412C197.623 28.2905 197.623 28.4151 197.623 28.789C197.623 29.1629 197.498 29.4122 197.373 29.5368C197.248 29.7861 196.997 29.7861 196.621 29.7861C196.245 29.7861 195.995 29.6614 195.869 29.5368C195.744 29.2875 195.619 29.0383 195.619 28.789ZM211.905 39.2579L212.657 40.7534C212.281 41.1273 211.78 41.3766 211.154 41.6258C210.527 41.8751 209.776 41.9997 209.149 41.9997C207.395 41.9997 206.017 41.5012 205.015 40.3795C204.013 39.3825 203.386 38.0116 203.386 36.2668C203.386 34.6466 203.887 33.2757 204.89 32.154C205.892 31.0323 207.27 30.5338 209.024 30.5338C210.402 30.5338 211.53 30.9077 212.407 31.6555L211.53 33.151C210.778 32.6525 209.901 32.4033 209.024 32.4033C208.022 32.4033 207.145 32.7772 206.393 33.4003C205.767 34.1481 205.391 35.0205 205.391 36.2668C205.391 37.3884 205.767 38.3855 206.393 39.1332C207.145 39.881 208.022 40.2549 209.149 40.2549C210.277 40.1303 211.154 39.881 211.905 39.2579ZM224.183 41.7505H222.304V37.0145H217.167V41.7505H215.163V30.6585H217.167V35.1451H222.304V30.6585H224.183V41.7505ZM235.083 30.6585H237.087L233.329 39.1332C232.953 40.0056 232.452 40.6288 232.076 41.1273C231.575 41.5012 231.074 41.7505 230.322 41.7505C229.57 41.7505 229.194 41.6258 228.818 41.2519L229.445 39.6318C229.695 39.7564 229.946 39.881 230.322 39.881C230.823 39.881 231.199 39.6318 231.449 39.1332L231.575 38.7594L226.689 30.6585H228.944L232.577 36.8899L235.083 30.6585Z" fill="white"/>
<path d="M92.6447 11.7155L103.419 24.8016H96.5285L87.884 13.9588V24.8016H82.4969V0.249629H87.884V10.22L96.1526 0.249629H102.793L92.6447 11.7155ZM202.516 5.35942H210.033V24.8016H215.42V5.35942H222.937V0.249629H202.391V5.35942H202.516ZM118.954 14.9559L126.596 24.8016H120.081L113.692 16.0775H111.688V24.8016H106.3V0.249629H106.927C108.054 0.249629 109.307 0.249629 110.685 0.249629C112.063 0.249629 113.191 0.249629 114.068 0.249629C121.585 0.249629 123.213 4.48702 123.213 8.10126C123.213 9.9707 122.712 11.5909 121.71 12.8372C120.833 13.7096 119.956 14.4573 118.954 14.9559ZM112.314 5.35942C112.063 5.35942 111.938 5.35942 111.688 5.35942V10.9677H113.692C114.82 10.9677 115.822 10.7185 116.573 10.0953C117.2 9.59681 117.576 8.84904 117.576 7.97663C117.576 6.73034 117.2 5.23479 113.817 5.23479C113.692 5.23479 113.567 5.23479 113.316 5.23479C113.066 5.35942 112.69 5.35942 112.314 5.35942ZM193.872 0.249629L204.27 24.8016H198.507L196.127 18.8194H186.982L184.601 24.8016H179.089L189.362 0.249629H193.872ZM191.492 7.72737L188.986 13.7096H193.997L191.492 7.72737ZM249.497 12.5879C249.497 16.2022 248.244 19.3179 245.864 21.6858C243.483 24.0538 240.351 25.3001 236.718 25.3001C233.085 25.3001 229.953 24.1784 227.573 21.8105C225.192 19.4425 223.94 16.4514 223.94 12.7125C223.94 9.22292 225.192 6.1072 227.573 3.73924C229.953 1.37129 233.085 0.125 236.718 0.125C240.351 0.125 243.483 1.24666 245.864 3.61461C248.244 5.73331 249.497 8.84904 249.497 12.5879ZM241.98 17.947C243.358 16.4514 243.985 14.7066 243.985 12.4633C243.985 10.22 243.358 8.47515 241.855 6.9796C240.477 5.60868 238.723 4.86091 236.718 4.86091C234.588 4.86091 232.96 5.60868 231.582 6.9796C230.204 8.35052 229.577 10.22 229.577 12.4633C229.577 14.7066 230.204 16.4514 231.582 17.8223C232.96 19.3179 234.588 19.941 236.718 19.941C238.973 20.0657 240.602 19.4425 241.98 17.947ZM176.082 0.249629L169.818 16.4514L163.303 0.249629H157.54L167.688 24.8016H171.697L181.594 0.249629H176.082V0.249629Z" fill="white"/>
<path d="M153.102 2.49432C151.595 0.997728 149.585 0.124716 147.45 0.124716C145.315 0.124716 143.306 0.997728 141.799 2.49432L141.422 2.86847L140.919 2.3696C139.412 0.873012 137.403 0 135.268 0C133.132 0 131.123 0.873012 129.616 2.3696C128.109 3.8662 127.229 5.86165 127.229 7.98182C127.229 10.102 128.109 12.0975 129.616 13.594L140.543 24.4443C140.794 24.6938 141.045 24.8185 141.422 24.8185C141.799 24.8185 142.05 24.6938 142.301 24.4443L153.228 13.594C154.735 12.0975 155.614 10.102 155.614 7.98182C155.614 5.86165 154.735 3.99091 153.102 2.49432Z" fill="#00B5FF"/>
<mask id="mask0_770_11797" style="mask-type:alpha" maskUnits="userSpaceOnUse" x="127" y="0" width="29" height="25">
<path d="M153.102 2.49432C151.595 0.997728 149.585 0.124716 147.45 0.124716C145.315 0.124716 143.306 0.997728 141.799 2.49432L141.422 2.86847L140.919 2.3696C139.412 0.873012 137.403 0 135.268 0C133.132 0 131.123 0.873012 129.616 2.3696C128.109 3.8662 127.229 5.86165 127.229 7.98182C127.229 10.102 128.109 12.0975 129.616 13.594L140.543 24.4443C140.794 24.6938 141.045 24.8185 141.422 24.8185C141.799 24.8185 142.05 24.6938 142.301 24.4443L153.228 13.594C154.735 12.0975 155.614 10.102 155.614 7.98182C155.614 5.86165 154.735 3.99091 153.102 2.49432Z" fill="#00B5FF"/>
</mask>
<g mask="url(#mask0_770_11797)">
<rect x="126.293" y="10.3223" width="30.0675" height="15.0844" fill="#FFBC00"/>
</g>
<path d="M7.23477 14.4V40.8C7.23477 41.52 6.75246 42 6.02898 42H1.2058C0.482318 42 0 41.52 0 40.8V14.4C0 13.68 0.482318 13.2 1.2058 13.2H6.02898C6.75246 13.2 7.23477 13.8 7.23477 14.4ZM72.7942 13.2H67.971C67.2476 13.2 66.7652 13.68 66.7652 14.4V40.8C66.7652 41.52 67.2476 42 67.971 42H72.7942C73.5177 42 74 41.52 74 40.8V14.4C74 13.8 73.5177 13.2 72.7942 13.2Z" fill="#FFBC57"/>
<path d="M64.3536 21.6V28.8C64.3536 29.52 63.8713 30 63.1479 30H10.8522C10.1287 30 9.64636 29.52 9.64636 28.8V21.6C9.64636 20.88 10.1287 20.4 10.8522 20.4H63.1479C63.8713 20.4 64.3536 20.88 64.3536 21.6ZM10.8522 18H25.0686C25.7921 18 26.2744 17.52 26.2744 16.8V1.2C26.2744 0.48 25.7921 0 25.0686 0H10.8522C10.1287 0 9.64636 0.48 9.64636 1.2V16.8C9.64636 17.52 10.1287 18 10.8522 18ZM29.8918 18H44.1082C44.8317 18 45.314 17.52 45.314 16.8V1.2C45.314 0.48 44.8317 0 44.1082 0H29.8918C29.1683 0 28.686 0.48 28.686 1.2V16.8C28.686 17.52 29.1683 18 29.8918 18ZM63.1479 0H48.9314C48.2079 0 47.7256 0.48 47.7256 1.2V16.8C47.7256 17.52 48.2079 18 48.9314 18H63.1479C63.8713 18 64.3536 17.52 64.3536 16.8V1.2C64.3536 0.48 63.8713 0 63.1479 0ZM63.1479 32.4H10.8522C10.1287 32.4 9.64636 32.88 9.64636 33.6V40.8C9.64636 41.52 10.1287 42 10.8522 42H17.8338C18.5573 42 19.0396 41.52 19.0396 40.8V39.6H54.9604V40.8C54.9604 41.52 55.4427 42 56.1662 42H63.1479C63.8713 42 64.3536 41.52 64.3536 40.8V33.6C64.3536 32.88 63.8713 32.4 63.1479 32.4Z" fill="#FFBC57"/>
</svg>
